<?xml version="1.0" ?><!DOCTYPE svg  PUBLIC '-//W3C//DTD SVG 1.1//EN'  'http://www.w3.org/Graphics/SVG/1.1/DTD/svg11.dtd'><svg enable-background="new 0 0 512 512" height="512px" id="Layer_1" version="1.1" viewBox="0 0 512 512" width="512px" xml:space="preserve" xmlns="http://www.w3.org/2000/svg" xmlns:xlink="http://www.w3.org/1999/xlink"><path d="M480,512H32c-17.672,0-32-14.312-32-32V32C0,14.312,14.328,0,32,0h320l-64,64H64v384h384V224l64-64v320  C512,497.688,497.672,512,480,512z M128,384v-96L416,0h32l64,64v32L224,384H128z M272,272L448,96l-32-32L240,240L272,272z M192,288  l-32,32v32h32l32-32L192,288z"/></svg>